<svg width="44" height="41" viewBox="0 0 44 41" fill="none" xmlns="http://www.w3.org/2000/svg">
<path d="M5.77008 14.4792V30.3774C5.77008 32.2932 6.48334 34.1305 7.75294 35.4851C9.02255 36.8397 10.7445 37.6008 12.54 37.6008H24.0887C23.5324 36.8116 23.0641 35.9561 22.6933 35.0514H12.54C11.3782 35.0514 10.264 34.5589 9.44249 33.6824C8.62098 32.8059 8.15946 31.617 8.15946 30.3774V14.4792C7.37836 14.7152 6.55119 14.7152 5.77008 14.4792V14.4792Z" fill="black"/>
<path d="M40.8143 7.43261V19.7548C40.0747 19.1613 39.2728 18.6617 38.4249 18.266V7.43261C38.4249 6.193 37.9634 5.00416 37.1419 4.12762C36.3204 3.25109 35.2062 2.75866 34.0444 2.75866H12.5401C11.6801 2.75838 10.8391 3.02819 10.1219 3.53443C9.40466 4.04068 8.84296 4.76097 8.5068 5.60552C7.71834 5.28897 6.86094 5.22227 6.03778 5.41346C6.44796 3.91215 7.30349 2.5933 8.47592 1.65492C9.64836 0.716543 11.0744 0.209259 12.5401 0.209229H34.0444C35.8399 0.209229 37.5618 0.970261 38.8314 2.32491C40.101 3.67955 40.8143 5.51685 40.8143 7.43261V7.43261Z" fill="black"/>
<path d="M16.5223 20.6045H25.5222C24.7605 21.3591 24.0938 22.2161 23.539 23.1539H16.5223C16.2054 23.1539 15.9015 23.0196 15.6775 22.7806C15.4534 22.5415 15.3276 22.2173 15.3276 21.8792C15.3276 21.5411 15.4534 21.2169 15.6775 20.9778C15.9015 20.7388 16.2054 20.6045 16.5223 20.6045Z" fill="black"/>
<path d="M0 13.3495C0 14.1383 0.293691 14.8948 0.816464 15.4526C1.33924 16.0104 2.04827 16.3238 2.78758 16.3238C3.5269 16.3238 4.23593 16.0104 4.7587 15.4526C5.28147 14.8948 5.57516 14.1383 5.57516 13.3495C5.57516 12.5606 5.28147 11.8041 4.7587 11.2463C4.23593 10.6885 3.5269 10.3751 2.78758 10.3751C2.04827 10.3751 1.33924 10.6885 0.816464 11.2463C0.293691 11.8041 0 12.5606 0 13.3495V13.3495Z" fill="black"/>
<path d="M16.5223 13.806C16.2054 13.806 15.9015 13.9403 15.6775 14.1793C15.4534 14.4184 15.3276 14.7426 15.3276 15.0807C15.3276 15.4188 15.4534 15.743 15.6775 15.982C15.9015 16.2211 16.2054 16.3554 16.5223 16.3554H30.062C30.3789 16.3554 30.6827 16.2211 30.9068 15.982C31.1308 15.743 31.2567 15.4188 31.2567 15.0807C31.2567 14.7426 31.1308 14.4184 30.9068 14.1793C30.6827 13.9403 30.3789 13.806 30.062 13.806H16.5223Z" fill="black"/>
<path d="M44 29.9526C44 32.8826 42.9091 35.6926 40.9674 37.7644C39.0257 39.8362 36.3921 41.0001 33.6461 41.0001C30.9001 41.0001 28.2665 39.8362 26.3248 37.7644C24.383 35.6926 23.2922 32.8826 23.2922 29.9526C23.2922 27.0226 24.383 24.2126 26.3248 22.1408C28.2665 20.069 30.9001 18.9051 33.6461 18.9051C36.3921 18.9051 39.0257 20.069 40.9674 22.1408C42.9091 24.2126 44 27.0226 44 29.9526V29.9526ZM34.4425 23.1541C34.4425 22.9288 34.3586 22.7126 34.2093 22.5532C34.0599 22.3939 33.8573 22.3043 33.6461 22.3043C33.4348 22.3043 33.2323 22.3939 33.0829 22.5532C32.9335 22.7126 32.8496 22.9288 32.8496 23.1541V29.1028H27.2744C27.0632 29.1028 26.8606 29.1923 26.7113 29.3517C26.5619 29.5111 26.478 29.7272 26.478 29.9526C26.478 30.178 26.5619 30.3941 26.7113 30.5535C26.8606 30.7129 27.0632 30.8024 27.2744 30.8024H32.8496V36.7511C32.8496 36.9765 32.9335 37.1926 33.0829 37.352C33.2323 37.5114 33.4348 37.6009 33.6461 37.6009C33.8573 37.6009 34.0599 37.5114 34.2093 37.352C34.3586 37.1926 34.4425 36.9765 34.4425 36.7511V30.8024H40.0177C40.2289 30.8024 40.4315 30.7129 40.5809 30.5535C40.7303 30.3941 40.8142 30.178 40.8142 29.9526C40.8142 29.7272 40.7303 29.5111 40.5809 29.3517C40.4315 29.1923 40.2289 29.1028 40.0177 29.1028H34.4425V23.1541Z" fill="black"/>
</svg>
