<svg width="38" height="37" viewBox="0 0 38 37" fill="none" xmlns="http://www.w3.org/2000/svg">
<path d="M19.02 17.1738C19.1737 17.1936 19.3298 17.1839 19.4796 17.1452C19.6294 17.1066 19.7699 17.0398 19.893 16.9486C20.0161 16.8574 20.1194 16.7437 20.1971 16.6138C20.2748 16.484 20.3253 16.3406 20.3458 16.1919C20.3662 16.0432 20.3562 15.892 20.3163 15.747C20.2764 15.602 20.2073 15.4661 20.1132 15.3469C20.019 15.2277 19.9014 15.1277 19.7673 15.0525C19.6332 14.9773 19.485 14.9284 19.3314 14.9086C17.1139 14.6232 15.1323 16.2535 15.1323 18.6329C15.1323 18.9357 15.2566 19.2261 15.4778 19.4402C15.699 19.6543 15.999 19.7746 16.3118 19.7746C16.6247 19.7746 16.9247 19.6543 17.1459 19.4402C17.3671 19.2261 17.4913 18.9357 17.4913 18.6329C17.4913 17.5894 18.2651 17.0733 19.02 17.1715V17.1738Z" fill="black"/>
<path d="M19.8316 29.4677C22.6439 29.4677 25.341 28.3863 27.3296 26.4614C29.3182 24.5366 30.4354 21.9259 30.4354 19.2037C30.4354 16.4815 29.3182 13.8708 27.3296 11.946C25.341 10.0211 22.6439 8.9397 19.8316 8.9397C17.0193 8.9397 14.3222 10.0211 12.3336 11.946C10.345 13.8708 9.22778 16.4815 9.22778 19.2037C9.22778 21.9259 10.345 24.5366 12.3336 26.4614C14.3222 28.3863 17.0193 29.4677 19.8316 29.4677ZM19.8316 27.1843C18.7489 27.1843 17.6768 26.9779 16.6765 26.5768C15.6762 26.1757 14.7673 25.5879 14.0017 24.8468C13.2361 24.1058 12.6287 23.226 12.2144 22.2577C11.8001 21.2895 11.5868 20.2517 11.5868 19.2037C11.5868 18.1557 11.8001 17.1179 12.2144 16.1497C12.6287 15.1814 13.2361 14.3016 14.0017 13.5606C14.7673 12.8195 15.6762 12.2317 16.6765 11.8306C17.6768 11.4295 18.7489 11.2231 19.8316 11.2231C22.0183 11.2231 24.1154 12.0639 25.6616 13.5606C27.2078 15.0572 28.0764 17.0871 28.0764 19.2037C28.0764 21.3203 27.2078 23.3502 25.6616 24.8468C24.1154 26.3435 22.0183 27.1843 19.8316 27.1843Z" fill="black"/>
<path d="M22.7048 0.0343415C25.17 0.189615 27.4842 0.89976 29.1379 1.90904C32.9288 4.22671 34.5636 6.77502 35.5073 8.37113C36.4249 9.9193 38.2343 13.3559 37.9748 17.103C37.908 18.1124 37.7709 19.1164 37.5643 20.1079L37.47 20.5966C37.3379 21.3364 37.2553 22.0945 37.3945 23.7432C37.5596 25.6864 37.1539 27.8145 36.3046 29.7029C35.4554 31.5867 34.1225 33.3267 32.3462 34.3999C28.6543 36.6331 24.2075 37.1172 20.0367 35.5028C18.1283 34.7653 17.4843 34.5894 16.7624 34.5483C16.2545 34.5293 15.7459 34.5339 15.2385 34.562H15.222C14.5378 34.5894 13.6603 34.6214 12.4407 34.6214C7.07859 34.6214 3.51174 31.5159 1.69057 28.1273C-0.977492 23.1586 -0.904362 15.637 4.96254 11.1546C6.75541 9.78457 7.29091 9.32789 7.89482 8.35287C8.88797 6.7499 9.83158 5.49402 10.9734 4.41167C12.1175 3.32476 13.4173 2.45021 15.0875 1.56195C17.5149 0.269535 20.2302 -0.123215 22.7048 0.0320583V0.0343415ZM22.5515 2.3132C20.4283 2.1762 18.1778 2.52328 16.2222 3.56452C14.6794 4.38655 13.5706 5.14465 12.6247 6.04204C11.6787 6.94171 10.853 8.01948 9.91886 9.52655C9.0649 10.9035 8.20149 11.5885 6.42514 12.9448C1.68349 16.5686 1.48062 22.7864 3.78303 27.0747C5.3046 29.9061 8.16611 32.338 12.4407 32.338C13.6155 32.338 14.46 32.306 15.137 32.2809H15.1819C15.833 32.2581 16.385 32.2352 16.911 32.2695C18.0504 32.338 19.0106 32.6462 20.9119 33.3838C24.3585 34.7173 28.0173 34.3268 31.0959 32.4636C32.365 31.6963 33.4313 30.3742 34.1414 28.7895C34.8538 27.2094 35.1746 25.4603 35.0449 23.9304C34.8892 22.1059 34.9741 21.1538 35.1463 20.2038L35.2525 19.6535C35.3869 18.9617 35.5308 18.2264 35.6205 16.95C35.8328 13.9199 34.3395 10.9902 33.462 9.506C32.6104 8.072 31.2115 5.87535 27.8782 3.84081C26.6043 3.06217 24.684 2.44792 22.5515 2.31092V2.3132Z" fill="black"/>
</svg>
