<svg width="40" height="40" viewBox="0 0 40 40" fill="none" xmlns="http://www.w3.org/2000/svg">
<path d="M19.8296 7.16084L18.0524 5.24037C13.8807 0.732354 6.23128 2.28801 3.46997 7.95561C2.17359 10.6213 1.8811 14.4701 4.24829 19.382C6.52873 24.1115 11.273 29.7765 19.8296 35.947C28.3862 29.7765 33.128 24.1115 35.411 19.382C37.7782 14.4675 37.4881 10.6213 36.1893 7.95561C33.428 2.28801 25.7786 0.729748 21.6069 5.23777L19.8296 7.16084ZM19.8296 39.087C-18.1768 12.6851 8.12752 -7.92148 19.3934 2.97855C19.5421 3.12187 19.6883 3.2704 19.8296 3.42414C19.9695 3.27053 20.115 3.12276 20.2659 2.98115C31.5293 -7.92669 57.8361 12.6825 19.8296 39.087Z" fill="black"/>
<svg x="10" y="8" width="20 " height="20" viewBox="0 0 19 18" fill="none" xmlns="http://www.w3.org/2000/svg">
<path d="M5.34014 2.94913C4.98413 2.94913 4.74679 3.26581 4.74679 3.47694V6.11601H3.56009V3.47694C3.56009 3.16025 3.32275 2.94913 2.96674 2.94913C2.61073 2.94913 2.37339 3.26581 2.37339 3.47694V6.11601H1.1867V3.47694C1.1867 3.16025 0.949358 2.94913 0.593349 2.94913C0.237339 2.94913 0 3.26581 0 3.47694V6.96051C0 7.91057 0.830688 8.64951 1.78005 8.75507V16.1445C1.78005 16.7778 2.25472 17.2001 2.96674 17.2001C3.67876 17.2001 4.15344 16.7778 4.15344 16.1445V8.75507C5.1028 8.64951 5.93349 7.91057 5.93349 6.96051V3.47694C5.93349 3.26581 5.69615 2.94913 5.34014 2.94913ZM7.71353 3.47694V9.8107H8.90023V16.1445C8.90023 16.7778 9.37491 17.2001 10.0869 17.2001C10.7989 17.2001 11.2736 16.7778 11.2736 16.1445V0.310059C9.25624 0.310059 7.71353 1.68237 7.71353 3.47694ZM16.0204 2.42131C14.359 2.42131 13.0537 4.00475 13.0537 5.90488C12.935 7.17163 13.647 8.33282 14.8337 9.07176V16.1445C14.8337 16.7778 15.3084 17.2001 16.0204 17.2001C16.7324 17.2001 17.2071 16.7778 17.2071 16.1445V9.07176C18.3938 8.33282 19.1058 7.17163 18.9872 5.90488C18.9872 4.00475 17.6818 2.42131 16.0204 2.42131Z" fill="black"/>
</svg>
</svg>
