<svg width="40" height="40" viewBox="0 0 40 40" fill="none" xmlns="http://www.w3.org/2000/svg">
<path fill-rule="evenodd" clip-rule="evenodd" d="M2.33789 20.0002C2.33789 15.3161 4.19863 10.8239 7.51078 7.51175C10.8229 4.19961 15.3151 2.33887 19.9992 2.33887C24.6833 2.33887 29.1755 4.19961 32.4877 7.51175C35.7998 10.8239 37.6606 15.3161 37.6606 20.0002C37.6606 24.6843 35.7998 29.1765 32.4877 32.4887C29.1755 35.8008 24.6833 37.6615 19.9992 37.6615C15.3151 37.6615 10.8229 35.8008 7.51078 32.4887C4.19863 29.1765 2.33789 24.6843 2.33789 20.0002V20.0002ZM19.9992 4.8722C17.067 4.8723 14.198 5.72455 11.7413 7.32528C9.2845 8.926 7.3459 11.2062 6.16128 13.8885C4.97666 16.5708 4.59708 19.5395 5.06873 22.4335C5.54038 25.3276 6.84292 28.0222 8.81789 30.1895C10.0169 28.3115 11.6699 26.766 13.6243 25.6959C15.5786 24.6257 17.7711 24.0655 19.9992 24.0669C24.6979 24.0669 28.8259 26.5095 31.1806 30.1895C33.1555 28.0222 34.4581 25.3276 34.9297 22.4335C35.4014 19.5395 35.0218 16.5708 33.8372 13.8885C32.6526 11.2062 30.7139 8.926 28.2572 7.32528C25.8004 5.72455 22.9314 4.8723 19.9992 4.8722V4.8722ZM29.2846 31.9442C28.3409 30.3179 26.9864 28.9681 25.3567 28.0302C23.7271 27.0922 21.8795 26.5991 19.9992 26.6002C18.1189 26.5991 16.2714 27.0922 14.6417 28.0302C13.0121 28.9681 11.6575 30.3179 10.7139 31.9442C13.3666 34.0127 16.6354 35.1336 19.9992 35.1282C23.4979 35.1282 26.7192 33.9389 29.2846 31.9442ZM13.7326 17.3469C13.7326 15.6848 14.3928 14.0909 15.568 12.9157C16.7433 11.7404 18.3372 11.0802 19.9992 11.0802C21.6612 11.0802 23.2552 11.7404 24.4304 12.9157C25.6057 14.0909 26.2659 15.6848 26.2659 17.3469C26.2659 19.0089 25.6057 20.6028 24.4304 21.7781C23.2552 22.9533 21.6612 23.6135 19.9992 23.6135C18.3372 23.6135 16.7433 22.9533 15.568 21.7781C14.3928 20.6028 13.7326 19.0089 13.7326 17.3469V17.3469ZM19.9992 13.6135C19.509 13.6135 19.0235 13.7101 18.5705 13.8977C18.1176 14.0853 17.706 14.3603 17.3594 14.707C17.0127 15.0537 16.7377 15.4652 16.5501 15.9182C16.3625 16.3711 16.2659 16.8566 16.2659 17.3469C16.2659 17.8371 16.3625 18.3226 16.5501 18.7756C16.7377 19.2285 17.0127 19.6401 17.3594 19.9867C17.706 20.3334 18.1176 20.6084 18.5705 20.796C19.0235 20.9836 19.509 21.0802 19.9992 21.0802C20.9894 21.0802 21.939 20.6869 22.6391 19.9867C23.3392 19.2866 23.7326 18.337 23.7326 17.3469C23.7326 16.3567 23.3392 15.4071 22.6391 14.707C21.939 14.0069 20.9894 13.6135 19.9992 13.6135V13.6135Z" fill="black"/>
</svg>
